<?xml version="1.0" encoding="UTF-8" standalone="no"?>
<svg
   viewBox="0 0 323.6209 402.99055"
   width="323.62091"
   height="402.99054"
   version="1.1"
   id="svg179"
   sodipodi:docname="b01_top_plate_laser.svg"
   inkscape:version="1.4.2 (f4327f4, 2025-05-13)"
   xmlns:inkscape="http://www.inkscape.org/namespaces/inkscape"
   xmlns:sodipodi="http://sodipodi.sourceforge.net/DTD/sodipodi-0.dtd"
   xmlns="http://www.w3.org/2000/svg"
   xmlns:svg="http://www.w3.org/2000/svg">
  <sodipodi:namedview
     id="namedview179"
     pagecolor="#ffffff"
     bordercolor="#000000"
     borderopacity="0.25"
     inkscape:showpageshadow="2"
     inkscape:pageopacity="0.0"
     inkscape:pagecheckerboard="0"
     inkscape:deskcolor="#d1d1d1"
     inkscape:zoom="0.9360733"
     inkscape:cx="255.32189"
     inkscape:cy="204.578"
     inkscape:window-width="1680"
     inkscape:window-height="987"
     inkscape:window-x="-8"
     inkscape:window-y="-8"
     inkscape:window-maximized="1"
     inkscape:current-layer="g137" />
  <desc
     id="desc1">b01_top_plate_laser.dxf - scale = 1.000000, origin = (0.000000, 0.000000), method = manual</desc>
  <defs
     id="defs5">
    <marker
       id="DistanceX"
       orient="auto"
       refX="0"
       refY="0"
       style="overflow:visible">
      <path
         d="M 3,-3 -3,3 M 0,-5 V 5"
         style="stroke:#000000;stroke-width:0.5"
         id="path1" />
    </marker>
    <pattern
       id="Hatch"
       patternUnits="userSpaceOnUse"
       width="8"
       height="8"
       x="0"
       y="0">
      <path
         d="M8 4 l-4,4"
         stroke="#000000"
         stroke-width="0.25"
         linecap="square"
         id="path2" />
      <path
         d="M6 2 l-4,4"
         stroke="#000000"
         stroke-width="0.25"
         linecap="square"
         id="path3" />
      <path
         d="M4 0 l-4,4"
         stroke="#000000"
         stroke-width="0.25"
         linecap="square"
         id="path4" />
    </pattern>
    <symbol
       id="*Model_Space" />
    <symbol
       id="*Paper_Space" />
    <symbol
       id="_FILLED">
      <path
         style="fill:none;stroke:#000000;stroke-linecap:round"
         d="m 0,1122.52 -3.77953,-0.81 v 1.62 z"
         id="path5" />
    </symbol>
  </defs>
  <g
     inkscape:groupmode="layer"
     inkscape:label="0"
     id="g137"
     transform="translate(-66.173306,-32.564708)">
    <path
       style="fill:none;stroke:#0000ff;stroke-linecap:round;stroke-opacity:1"
       d="m 105.14921,435.05496 h 245.669"
       id="path10" />
    <path
       style="fill:none;stroke:#0000ff;stroke-linecap:round;stroke-opacity:1"
       d="m 66.673306,109.33596 v 287.244"
       id="path11" />
    <path
       style="fill:none;stroke:#0000ff;stroke-linecap:round;stroke-opacity:1"
       d="m 143.88921,372.95796 h 5.669"
       id="path12" />
    <path
       style="fill:none;stroke:#0000ff;stroke-linecap:round;stroke-opacity:1"
       d="m 306.40921,372.95796 h 5.669"
       id="path13" />
    <path
       style="fill:none;stroke:#0000ff;stroke-linecap:round;stroke-opacity:1"
       d="m 312.07821,370.12296 h -5.669"
       id="path14" />
    <path
       style="fill:none;stroke:#0000ff;stroke-linecap:round;stroke-opacity:1"
       d="m 149.55821,370.12296 h -5.669"
       id="path15" />
    <path
       style="fill:none;stroke:#0000ff;stroke-linecap:round;stroke-opacity:1"
       d="m 128.50621,369.44296 h 9.978"
       id="path16" />
    <path
       style="fill:none;stroke:#0000ff;stroke-linecap:round;stroke-opacity:1"
       d="m 154.96321,369.44296 h 9.978"
       id="path17" />
    <path
       style="fill:none;stroke:#0000ff;stroke-linecap:round;stroke-opacity:1"
       d="m 291.02621,369.44296 h 9.978"
       id="path18" />
    <path
       style="fill:none;stroke:#0000ff;stroke-linecap:round;stroke-opacity:1"
       d="m 317.48321,369.44296 h 9.978"
       id="path19" />
    <path
       style="fill:none;stroke:#0000ff;stroke-linecap:round;stroke-opacity:1"
       d="m 327.46121,359.46496 h -9.978"
       id="path20" />
    <path
       style="fill:none;stroke:#0000ff;stroke-linecap:round;stroke-opacity:1"
       d="m 301.00421,359.46496 h -9.978"
       id="path21" />
    <path
       style="fill:none;stroke:#0000ff;stroke-linecap:round;stroke-opacity:1"
       d="m 164.94121,359.46496 h -9.978"
       id="path22" />
    <path
       style="fill:none;stroke:#0000ff;stroke-linecap:round;stroke-opacity:1"
       d="m 138.48421,359.46496 h -9.978"
       id="path23" />
    <path
       style="fill:none;stroke:#0000ff;stroke-linecap:round;stroke-opacity:1"
       d="m 258.01221,350.49796 h -2.457"
       id="path24" />
    <path
       style="fill:none;stroke:#0000ff;stroke-linecap:round;stroke-opacity:1"
       d="m 200.41221,350.40296 h -2.457"
       id="path25" />
    <path
       style="fill:none;stroke:#0000ff;stroke-linecap:round;stroke-opacity:1"
       d="m 255.55521,348.04096 h 2.457"
       id="path26" />
    <path
       style="fill:none;stroke:#0000ff;stroke-linecap:round;stroke-opacity:1"
       d="m 197.95521,347.94696 h 2.457"
       id="path27" />
    <path
       style="fill:none;stroke:#0000ff;stroke-linecap:round;stroke-opacity:1"
       d="m 141.73521,346.76596 h 9.977"
       id="path28" />
    <path
       style="fill:none;stroke:#0000ff;stroke-linecap:round;stroke-opacity:1"
       d="m 304.25421,346.76596 h 9.978"
       id="path29" />
    <path
       style="fill:none;stroke:#0000ff;stroke-linecap:round;stroke-opacity:1"
       d="m 258.01221,340.89796 h -2.457"
       id="path30" />
    <path
       style="fill:none;stroke:#0000ff;stroke-linecap:round;stroke-opacity:1"
       d="m 200.41221,340.80296 h -2.457"
       id="path31" />
    <path
       style="fill:none;stroke:#0000ff;stroke-linecap:round;stroke-opacity:1"
       d="m 255.55521,338.44096 h 2.457"
       id="path32" />
    <path
       style="fill:none;stroke:#0000ff;stroke-linecap:round;stroke-opacity:1"
       d="m 197.95521,338.34696 h 2.457"
       id="path33" />
    <path
       style="fill:none;stroke:#0000ff;stroke-linecap:round;stroke-opacity:1"
       d="m 314.23221,336.78796 h -9.978"
       id="path34" />
    <path
       style="fill:none;stroke:#0000ff;stroke-linecap:round;stroke-opacity:1"
       d="m 151.71221,336.78796 h -9.977"
       id="path35" />
    <path
       style="fill:none;stroke:#0000ff;stroke-linecap:round;stroke-opacity:1"
       d="m 128.50621,359.46496 v 9.978"
       id="path36" />
    <path
       style="fill:none;stroke:#0000ff;stroke-linecap:round;stroke-opacity:1"
       d="m 138.48421,369.44296 v -9.978"
       id="path37" />
    <path
       style="fill:none;stroke:#0000ff;stroke-linecap:round;stroke-opacity:1"
       d="m 141.73521,314.10996 v 9.978"
       id="path38" />
    <path
       style="fill:none;stroke:#0000ff;stroke-linecap:round;stroke-opacity:1"
       d="m 141.73521,336.78796 v 9.978"
       id="path39" />
    <path
       style="fill:none;stroke:#0000ff;stroke-linecap:round;stroke-opacity:1"
       d="m 258.01221,331.29796 h -2.457"
       id="path40" />
    <path
       style="fill:none;stroke:#0000ff;stroke-linecap:round;stroke-opacity:1"
       d="m 200.41221,331.20296 h -2.457"
       id="path41" />
    <path
       style="fill:none;stroke:#0000ff;stroke-linecap:round;stroke-opacity:1"
       d="m 255.55521,328.84096 h 2.457"
       id="path42" />
    <path
       style="fill:none;stroke:#0000ff;stroke-linecap:round;stroke-opacity:1"
       d="m 197.95521,328.74696 h 2.457"
       id="path43" />
    <path
       style="fill:none;stroke:#0000ff;stroke-linecap:round;stroke-opacity:1"
       d="m 141.73521,324.08796 h 9.977"
       id="path44" />
    <path
       style="fill:none;stroke:#0000ff;stroke-linecap:round;stroke-opacity:1"
       d="m 304.25421,324.08796 h 9.978"
       id="path45" />
    <path
       style="fill:none;stroke:#0000ff;stroke-linecap:round;stroke-opacity:1"
       d="m 258.01221,321.69796 h -2.457"
       id="path46" />
    <path
       style="fill:none;stroke:#0000ff;stroke-linecap:round;stroke-opacity:1"
       d="m 200.41221,321.60296 h -2.457"
       id="path47" />
    <path
       style="fill:none;stroke:#0000ff;stroke-linecap:round;stroke-opacity:1"
       d="m 255.55521,319.24096 h 2.457"
       id="path48" />
    <path
       style="fill:none;stroke:#0000ff;stroke-linecap:round;stroke-opacity:1"
       d="m 197.95521,319.14696 h 2.457"
       id="path49" />
    <path
       style="fill:none;stroke:#0000ff;stroke-linecap:round;stroke-opacity:1"
       d="m 151.71221,346.76596 v -9.978"
       id="path50" />
    <path
       style="fill:none;stroke:#0000ff;stroke-linecap:round;stroke-opacity:1"
       d="m 151.71221,324.08796 v -9.978"
       id="path51" />
    <path
       style="fill:none;stroke:#0000ff;stroke-linecap:round;stroke-opacity:1"
       d="m 154.96321,359.46496 v 9.978"
       id="path52" />
    <path
       style="fill:none;stroke:#0000ff;stroke-linecap:round;stroke-opacity:1"
       d="m 180.70921,161.83096 -16.71,28.942"
       id="path53" />
    <path
       style="fill:none;stroke:#0000ff;stroke-linecap:round;stroke-opacity:1"
       d="m 170.54621,194.55296 16.71,-28.943"
       id="path54" />
    <path
       style="fill:none;stroke:#0000ff;stroke-linecap:round;stroke-opacity:1"
       d="m 314.23221,314.10996 h -9.978"
       id="path55" />
    <path
       style="fill:none;stroke:#0000ff;stroke-linecap:round;stroke-opacity:1"
       d="m 151.71221,314.10996 h -9.977"
       id="path56" />
    <path
       style="fill:none;stroke:#0000ff;stroke-linecap:round;stroke-opacity:1"
       d="m 258.01221,312.09796 h -2.457"
       id="path57" />
    <path
       style="fill:none;stroke:#0000ff;stroke-linecap:round;stroke-opacity:1"
       d="m 200.41221,312.00296 h -2.457"
       id="path58" />
    <path
       style="fill:none;stroke:#0000ff;stroke-linecap:round;stroke-opacity:1"
       d="m 255.55521,309.64096 h 2.457"
       id="path59" />
    <path
       style="fill:none;stroke:#0000ff;stroke-linecap:round;stroke-opacity:1"
       d="m 197.95521,309.54696 h 2.457"
       id="path60" />
    <path
       style="fill:none;stroke:#0000ff;stroke-linecap:round;stroke-opacity:1"
       d="m 258.01221,302.49796 h -2.457"
       id="path61" />
    <path
       style="fill:none;stroke:#0000ff;stroke-linecap:round;stroke-opacity:1"
       d="m 200.41221,302.40296 h -2.457"
       id="path62" />
    <path
       style="fill:none;stroke:#0000ff;stroke-linecap:round;stroke-opacity:1"
       d="m 164.94121,369.44296 v -9.978"
       id="path63" />
    <path
       style="fill:none;stroke:#0000ff;stroke-linecap:round;stroke-opacity:1"
       d="m 255.55521,300.04096 h 2.457"
       id="path64" />
    <path
       style="fill:none;stroke:#0000ff;stroke-linecap:round;stroke-opacity:1"
       d="m 197.95521,299.94696 h 2.457"
       id="path65" />
    <path
       style="fill:none;stroke:#0000ff;stroke-linecap:round;stroke-opacity:1"
       d="m 258.01221,292.89796 h -2.457"
       id="path66" />
    <path
       style="fill:none;stroke:#0000ff;stroke-linecap:round;stroke-opacity:1"
       d="m 200.41221,292.80296 h -2.457"
       id="path67" />
    <path
       style="fill:none;stroke:#0000ff;stroke-linecap:round;stroke-opacity:1"
       d="m 255.55521,290.44096 h 2.457"
       id="path68" />
    <path
       style="fill:none;stroke:#0000ff;stroke-linecap:round;stroke-opacity:1"
       d="m 197.95521,290.34696 h 2.457"
       id="path69" />
    <path
       style="fill:none;stroke:#0000ff;stroke-linecap:round;stroke-opacity:1"
       d="m 163.99921,239.55096 16.71,28.943"
       id="path70" />
    <path
       style="fill:none;stroke:#0000ff;stroke-linecap:round;stroke-opacity:1"
       d="m 187.25621,264.71396 -16.71,-28.942"
       id="path71" />
    <path
       style="fill:none;stroke:#0000ff;stroke-linecap:round;stroke-opacity:1"
       d="m 197.95521,350.40296 v -2.456"
       id="path72" />
    <path
       style="fill:none;stroke:#0000ff;stroke-linecap:round;stroke-opacity:1"
       d="m 197.95521,340.80296 v -2.456"
       id="path73" />
    <path
       style="fill:none;stroke:#0000ff;stroke-linecap:round;stroke-opacity:1"
       d="m 197.95521,331.20296 v -2.456"
       id="path74" />
    <path
       style="fill:none;stroke:#0000ff;stroke-linecap:round;stroke-opacity:1"
       d="m 197.95521,321.60296 v -2.456"
       id="path75" />
    <path
       style="fill:none;stroke:#0000ff;stroke-linecap:round;stroke-opacity:1"
       d="m 197.95521,312.00296 v -2.456"
       id="path76" />
    <path
       style="fill:none;stroke:#0000ff;stroke-linecap:round;stroke-opacity:1"
       d="m 197.95521,302.40296 v -2.456"
       id="path77" />
    <path
       style="fill:none;stroke:#0000ff;stroke-linecap:round;stroke-opacity:1"
       d="m 197.95521,292.80296 v -2.456"
       id="path78" />
    <path
       style="fill:none;stroke:#0000ff;stroke-linecap:round;stroke-opacity:1"
       d="m 200.41221,290.34696 v 2.456"
       id="path79" />
    <path
       style="fill:none;stroke:#0000ff;stroke-linecap:round;stroke-opacity:1"
       d="m 200.41221,299.94696 v 2.456"
       id="path80" />
    <path
       style="fill:none;stroke:#0000ff;stroke-linecap:round;stroke-opacity:1"
       d="m 200.41221,309.54696 v 2.456"
       id="path81" />
    <path
       style="fill:none;stroke:#0000ff;stroke-linecap:round;stroke-opacity:1"
       d="m 200.41221,319.14696 v 2.456"
       id="path82" />
    <path
       style="fill:none;stroke:#0000ff;stroke-linecap:round;stroke-opacity:1"
       d="m 200.41221,328.74696 v 2.456"
       id="path83" />
    <path
       style="fill:none;stroke:#0000ff;stroke-linecap:round;stroke-opacity:1"
       d="m 200.41221,338.34696 v 2.456"
       id="path84" />
    <path
       style="fill:none;stroke:#0000ff;stroke-linecap:round;stroke-opacity:1"
       d="m 200.41221,347.94696 v 2.456"
       id="path85" />
    <path
       style="fill:none;stroke:#0000ff;stroke-linecap:round;stroke-opacity:1"
       d="M 94.882806,218.94196 H 128.30321"
       id="path86" />
    <path
       style="fill:none;stroke:#0000ff;stroke-linecap:round;stroke-opacity:1"
       d="m 255.55521,350.49796 v -2.457"
       id="path87" />
    <path
       style="fill:none;stroke:#0000ff;stroke-linecap:round;stroke-opacity:1"
       d="m 255.55521,340.89796 v -2.457"
       id="path88" />
    <path
       style="fill:none;stroke:#0000ff;stroke-linecap:round;stroke-opacity:1"
       d="m 255.55521,331.29796 v -2.457"
       id="path89" />
    <path
       style="fill:none;stroke:#0000ff;stroke-linecap:round;stroke-opacity:1"
       d="m 255.55521,321.69796 v -2.457"
       id="path90" />
    <path
       style="fill:none;stroke:#0000ff;stroke-linecap:round;stroke-opacity:1"
       d="m 255.55521,312.09796 v -2.457"
       id="path91" />
    <path
       style="fill:none;stroke:#0000ff;stroke-linecap:round;stroke-opacity:1"
       d="m 255.55521,302.49796 v -2.457"
       id="path92" />
    <path
       style="fill:none;stroke:#0000ff;stroke-linecap:round;stroke-opacity:1"
       d="m 255.55521,292.89796 v -2.457"
       id="path93" />
    <path
       style="fill:none;stroke:#0000ff;stroke-linecap:round;stroke-opacity:1"
       d="m 258.01221,290.44096 v 2.457"
       id="path94" />
    <path
       style="fill:none;stroke:#0000ff;stroke-linecap:round;stroke-opacity:1"
       d="m 258.01221,300.04096 v 2.457"
       id="path95" />
    <path
       style="fill:none;stroke:#0000ff;stroke-linecap:round;stroke-opacity:1"
       d="m 258.01221,309.64096 v 2.457"
       id="path96" />
    <path
       style="fill:none;stroke:#0000ff;stroke-linecap:round;stroke-opacity:1"
       d="m 258.01221,319.24096 v 2.457"
       id="path97" />
    <path
       style="fill:none;stroke:#0000ff;stroke-linecap:round;stroke-opacity:1"
       d="m 258.01221,328.84096 v 2.457"
       id="path98" />
    <path
       style="fill:none;stroke:#0000ff;stroke-linecap:round;stroke-opacity:1"
       d="m 258.01221,338.44096 v 2.457"
       id="path99" />
    <path
       style="fill:none;stroke:#0000ff;stroke-linecap:round;stroke-opacity:1"
       d="m 258.01221,348.04096 v 2.457"
       id="path100" />
    <path
       style="fill:none;stroke:#0000ff;stroke-linecap:round;stroke-opacity:1"
       d="M 128.30321,211.38296 H 94.882806"
       id="path101" />
    <path
       style="fill:none;stroke:#0000ff;stroke-linecap:round;stroke-opacity:1"
       d="m 291.02621,359.46496 v 9.978"
       id="path102" />
    <path
       style="fill:none;stroke:#0000ff;stroke-linecap:round;stroke-opacity:1"
       d="m 301.00421,369.44296 v -9.978"
       id="path103" />
    <path
       style="fill:none;stroke:#0000ff;stroke-linecap:round;stroke-opacity:1"
       d="m 304.25421,314.10996 v 9.978"
       id="path104" />
    <path
       style="fill:none;stroke:#0000ff;stroke-linecap:round;stroke-opacity:1"
       d="m 304.25421,336.78796 v 9.978"
       id="path105" />
    <path
       style="fill:none;stroke:#0000ff;stroke-linecap:round;stroke-opacity:1"
       d="m 314.23221,346.76596 v -9.978"
       id="path106" />
    <path
       style="fill:none;stroke:#0000ff;stroke-linecap:round;stroke-opacity:1"
       d="m 314.23221,324.08796 v -9.978"
       id="path107" />
    <path
       style="fill:none;stroke:#0000ff;stroke-linecap:round;stroke-opacity:1"
       d="m 317.48321,359.46496 v 9.978"
       id="path108" />
    <path
       style="fill:none;stroke:#0000ff;stroke-linecap:round;stroke-opacity:1"
       d="m 327.46121,369.44296 v -9.978"
       id="path109" />
    <path
       style="fill:none;stroke:#0000ff;stroke-linecap:round;stroke-opacity:1"
       d="m 389.29421,396.57996 v -287.244"
       id="path110" />
    <path
       style="fill:none;stroke:#0000ff;stroke-linecap:round;stroke-opacity:1"
       d="m 313.02321,33.064963 h -170.079"
       id="path111" />
    <path
       d="m 66.673335,396.57967 a 38.475591,38.475591 0 0 0 38.475595,38.47559"
       style="fill:none;stroke:#0000ff;stroke-linecap:round;stroke-opacity:1"
       id="path112" />
    <path
       d="m 176.64831,279.41239 a 7.559055,7.559055 0 0 0 4.06128,-10.91842"
       style="fill:none;stroke:#0000ff;stroke-linecap:round;stroke-opacity:1"
       id="path113" />
    <path
       d="m 187.25592,264.71444 a 7.559055,7.559055 0 0 0 11.48627,1.94204"
       style="fill:none;stroke:#0000ff;stroke-linecap:round;stroke-opacity:1"
       id="path114" />
    <path
       d="m 149.55837,372.95762 a 1.417323,1.417323 0 0 0 0,-2.83464"
       style="fill:none;stroke:#0000ff;stroke-linecap:round;stroke-opacity:1"
       id="path115" />
    <path
       d="m 143.88908,370.12298 a 1.417323,1.417323 0 0 0 0,2.83464"
       style="fill:none;stroke:#0000ff;stroke-linecap:round;stroke-opacity:1"
       id="path116" />
    <path
       d="M 142.9442,33.064708 A 76.270866,76.270866 0 0 0 66.673335,109.33557"
       style="fill:none;stroke:#0000ff;stroke-linecap:round;stroke-opacity:1"
       id="path117" />
    <path
       d="M 176.64831,150.91231 A 68.031496,68.031496 0 0 0 87.457853,202.40644"
       style="fill:none;stroke:#0000ff;stroke-linecap:round;stroke-opacity:1"
       id="path118" />
    <path
       d="m 87.457853,227.91825 a 68.031496,68.031496 0 0 0 89.190457,51.49414"
       style="fill:none;stroke:#0000ff;stroke-linecap:round;stroke-opacity:1"
       id="path119" />
    <path
       d="m 198.74219,266.65648 a 68.031496,68.031496 0 0 0 0,-102.98827"
       style="fill:none;stroke:#0000ff;stroke-linecap:round;stroke-opacity:1"
       id="path120" />
    <path
       d="m 156.6078,194.50538 a 20.787402,20.787402 0 0 0 -21.37698,12.34201"
       style="fill:none;stroke:#0000ff;stroke-linecap:round;stroke-opacity:1"
       id="path121" />
    <path
       d="m 135.23082,223.47731 a 20.787402,20.787402 0 0 0 21.37698,12.342"
       style="fill:none;stroke:#0000ff;stroke-linecap:round;stroke-opacity:1"
       id="path122" />
    <path
       d="m 171.00974,227.50435 a 20.787402,20.787402 0 0 0 0,-24.68401"
       style="fill:none;stroke:#0000ff;stroke-linecap:round;stroke-opacity:1"
       id="path123" />
    <path
       d="m 180.70959,161.83073 a 7.559055,7.559055 0 0 0 -4.06128,-10.91842"
       style="fill:none;stroke:#0000ff;stroke-linecap:round;stroke-opacity:1"
       id="path124" />
    <path
       d="m 156.6078,194.50538 a 7.559055,7.559055 0 0 0 7.3918,-3.7321"
       style="fill:none;stroke:#0000ff;stroke-linecap:round;stroke-opacity:1"
       id="path125" />
    <path
       d="m 128.30283,211.38282 a 7.559055,7.559055 0 0 0 6.92799,-4.53543"
       style="fill:none;stroke:#0000ff;stroke-linecap:round;stroke-opacity:1"
       id="path126" />
    <path
       d="m 87.457853,202.40644 a 7.559055,7.559055 0 0 0 7.424993,8.97638"
       style="fill:none;stroke:#0000ff;stroke-linecap:round;stroke-opacity:1"
       id="path127" />
    <path
       d="m 94.882846,218.94187 a 7.559055,7.559055 0 0 0 -7.424993,8.97638"
       style="fill:none;stroke:#0000ff;stroke-linecap:round;stroke-opacity:1"
       id="path128" />
    <path
       d="m 135.23082,223.47731 a 7.559055,7.559055 0 0 0 -6.92799,-4.53544"
       style="fill:none;stroke:#0000ff;stroke-linecap:round;stroke-opacity:1"
       id="path129" />
    <path
       d="m 163.9996,239.55141 a 7.559055,7.559055 0 0 0 -7.3918,-3.7321"
       style="fill:none;stroke:#0000ff;stroke-linecap:round;stroke-opacity:1"
       id="path130" />
    <path
       d="m 171.00974,227.50435 a 7.559055,7.559055 0 0 0 -0.46381,8.26753"
       style="fill:none;stroke:#0000ff;stroke-linecap:round;stroke-opacity:1"
       id="path131" />
    <path
       d="m 170.54593,194.55281 a 7.559055,7.559055 0 0 0 0.46381,8.26753"
       style="fill:none;stroke:#0000ff;stroke-linecap:round;stroke-opacity:1"
       id="path132" />
    <path
       d="m 198.74219,163.66821 a 7.559055,7.559055 0 0 0 -11.48627,1.94204"
       style="fill:none;stroke:#0000ff;stroke-linecap:round;stroke-opacity:1"
       id="path133" />
    <path
       d="m 350.81822,435.05526 a 38.475591,38.475591 0 0 0 38.47559,-38.47559"
       style="fill:none;stroke:#0000ff;stroke-linecap:round;stroke-opacity:1"
       id="path134" />
    <path
       d="m 312.07806,372.95762 a 1.417323,1.417323 0 0 0 0,-2.83464"
       style="fill:none;stroke:#0000ff;stroke-linecap:round;stroke-opacity:1"
       id="path135" />
    <path
       d="m 306.40877,370.12298 a 1.417323,1.417323 0 0 0 0,2.83464"
       style="fill:none;stroke:#0000ff;stroke-linecap:round;stroke-opacity:1"
       id="path136" />
    <path
       d="M 389.29381,109.33557 A 76.270866,76.270866 0 0 0 313.02294,33.064708"
       style="fill:none;stroke:#0000ff;stroke-linecap:round;stroke-opacity:1"
       id="path137" />
  </g>
  <g
     inkscape:groupmode="layer"
     inkscape:label="DEFAULT_1"
     id="g138"
     transform="translate(-66.173306,-32.564708)" />
  <g
     inkscape:groupmode="layer"
     inkscape:label="DEFAULT_2"
     id="g139"
     transform="translate(-66.173306,-32.564708)" />
  <g
     inkscape:groupmode="layer"
     inkscape:label="DEFAULT_3"
     id="g140"
     transform="translate(-66.173306,-32.564708)" />
  <g
     inkscape:groupmode="layer"
     inkscape:label="01___PRT_ALL_DTM_PLN"
     id="g141"
     transform="translate(-66.173306,-32.564708)" />
  <g
     inkscape:groupmode="layer"
     inkscape:label="01___PRT_DEF_DTM_PLN"
     id="g142"
     transform="translate(-66.173306,-32.564708)" />
  <g
     inkscape:groupmode="layer"
     inkscape:label="02___PRT_ALL_AXES"
     id="g173"
     transform="translate(-66.173306,-32.564708)">
    <path
       style="fill:none;stroke:#0000ff;stroke-linecap:round;stroke-opacity:1"
       d="m 361.08421,219.62196 h -33.42"
       id="path142" />
    <path
       style="fill:none;stroke:#0000ff;stroke-linecap:round;stroke-opacity:1"
       d="m 327.66421,210.70296 h 33.42"
       id="path143" />
    <path
       style="fill:none;stroke:#0000ff;stroke-linecap:round;stroke-opacity:1"
       d="m 268.12221,264.37396 16.71,-28.942"
       id="path144" />
    <path
       style="fill:none;stroke:#0000ff;stroke-linecap:round;stroke-opacity:1"
       d="m 292.55721,239.89196 -16.71,28.942"
       id="path145" />
    <path
       style="fill:none;stroke:#0000ff;stroke-linecap:round;stroke-opacity:1"
       d="m 284.83221,194.89296 -16.71,-28.943"
       id="path146" />
    <path
       style="fill:none;stroke:#0000ff;stroke-linecap:round;stroke-opacity:1"
       d="m 275.84721,161.49096 16.71,28.942"
       id="path147" />
    <path
       d="m 161.84184,215.16235 a 7.559055,7.559055 0 0 0 -15.11811,0 7.559055,7.559055 0 0 0 15.11811,0 z"
       style="fill:none;stroke:#0000ff;stroke-linecap:round;stroke-opacity:1"
       id="path148" />
    <path
       d="m 169.40089,215.16235 a 2.6456695,2.6456695 0 0 0 -5.29133,0 2.6456695,2.6456695 0 0 0 5.29133,0 z"
       style="fill:none;stroke:#0000ff;stroke-linecap:round;stroke-opacity:1"
       id="path149" />
    <path
       d="m 150.69223,225.9638 a 2.64567,2.64567 0 0 0 -5.29134,0 2.64567,2.64567 0 0 0 5.29134,0 z"
       style="fill:none;stroke:#0000ff;stroke-linecap:round;stroke-opacity:1"
       id="path150" />
    <path
       d="m 150.69223,204.3609 a 2.64567,2.64567 0 0 0 -5.29134,0 2.64567,2.64567 0 0 0 5.29134,0 z"
       style="fill:none;stroke:#0000ff;stroke-linecap:round;stroke-opacity:1"
       id="path151" />
    <path
       d="m 257.66955,266.14154 a 6.87874,6.87874 0 0 0 10.4525,-1.76726"
       style="fill:none;stroke:#0000ff;stroke-linecap:round;stroke-opacity:1"
       id="path152" />
    <path
       d="m 275.84673,268.83412 a 6.87874,6.87874 0 0 0 3.69576,9.93577"
       style="fill:none;stroke:#0000ff;stroke-linecap:round;stroke-opacity:1"
       id="path153" />
    <path
       d="m 257.66955,164.18315 a 67.351181,67.351181 0 0 0 0,101.95839"
       style="fill:none;stroke:#0000ff;stroke-linecap:round;stroke-opacity:1"
       id="path154" />
    <path
       d="m 279.54249,278.76989 a 67.351181,67.351181 0 0 0 88.29855,-50.9792"
       style="fill:none;stroke:#0000ff;stroke-linecap:round;stroke-opacity:1"
       id="path155" />
    <path
       d="M 367.84104,202.534 A 67.351181,67.351181 0 0 0 279.54249,151.55481"
       style="fill:none;stroke:#0000ff;stroke-linecap:round;stroke-opacity:1"
       id="path156" />
    <path
       d="m 284.40998,202.41642 a 21.467717,21.467717 0 0 0 0,25.49185"
       style="fill:none;stroke:#0000ff;stroke-linecap:round;stroke-opacity:1"
       id="path157" />
    <path
       d="m 299.28325,236.49536 a 21.467717,21.467717 0 0 0 22.0766,-12.74593"
       style="fill:none;stroke:#0000ff;stroke-linecap:round;stroke-opacity:1"
       id="path158" />
    <path
       d="m 321.35985,206.57526 a 21.467717,21.467717 0 0 0 -22.0766,-12.74593"
       style="fill:none;stroke:#0000ff;stroke-linecap:round;stroke-opacity:1"
       id="path159" />
    <path
       d="m 308.5631,215.16235 a 6.8787405,6.8787405 0 0 0 -13.75748,0 6.8787405,6.8787405 0 0 0 13.75748,0 z"
       style="fill:none;stroke:#0000ff;stroke-linecap:round;stroke-opacity:1"
       id="path160" />
    <path
       d="m 284.40998,202.41642 a 6.87874,6.87874 0 0 0 0.42206,-7.52346"
       style="fill:none;stroke:#0000ff;stroke-linecap:round;stroke-opacity:1"
       id="path161" />
    <path
       d="m 284.83204,235.43173 a 6.87874,6.87874 0 0 0 -0.42206,-7.52346"
       style="fill:none;stroke:#0000ff;stroke-linecap:round;stroke-opacity:1"
       id="path162" />
    <path
       d="m 268.12205,165.95041 a 6.87874,6.87874 0 0 0 -10.4525,-1.76726"
       style="fill:none;stroke:#0000ff;stroke-linecap:round;stroke-opacity:1"
       id="path163" />
    <path
       d="m 367.84104,227.79069 a 6.87874,6.87874 0 0 0 -6.75674,-8.1685"
       style="fill:none;stroke:#0000ff;stroke-linecap:round;stroke-opacity:1"
       id="path164" />
    <path
       d="m 299.28325,236.49536 a 6.87874,6.87874 0 0 0 -6.72653,3.39621"
       style="fill:none;stroke:#0000ff;stroke-linecap:round;stroke-opacity:1"
       id="path165" />
    <path
       d="m 327.66432,219.62219 a 6.87874,6.87874 0 0 0 -6.30447,4.12724"
       style="fill:none;stroke:#0000ff;stroke-linecap:round;stroke-opacity:1"
       id="path166" />
    <path
       d="m 361.0843,210.7025 a 6.87874,6.87874 0 0 0 6.75674,-8.1685"
       style="fill:none;stroke:#0000ff;stroke-linecap:round;stroke-opacity:1"
       id="path167" />
    <path
       d="m 321.35985,206.57526 a 6.87874,6.87874 0 0 0 6.30447,4.12724"
       style="fill:none;stroke:#0000ff;stroke-linecap:round;stroke-opacity:1"
       id="path168" />
    <path
       d="m 292.55672,190.43312 a 6.87874,6.87874 0 0 0 6.72653,3.39621"
       style="fill:none;stroke:#0000ff;stroke-linecap:round;stroke-opacity:1"
       id="path169" />
    <path
       d="m 279.54249,151.55481 a 6.87874,6.87874 0 0 0 -3.69576,9.93576"
       style="fill:none;stroke:#0000ff;stroke-linecap:round;stroke-opacity:1"
       id="path170" />
    <path
       d="m 309.88593,225.9638 a 1.965354,1.965354 0 0 0 -3.9307,0 1.965354,1.965354 0 0 0 3.9307,0 z"
       style="fill:none;stroke:#0000ff;stroke-linecap:round;stroke-opacity:1"
       id="path171" />
    <path
       d="m 291.17727,215.16235 a 1.965355,1.965355 0 0 0 -3.93071,0 1.965355,1.965355 0 0 0 3.93071,0 z"
       style="fill:none;stroke:#0000ff;stroke-linecap:round;stroke-opacity:1"
       id="path172" />
    <path
       d="m 309.88593,204.3609 a 1.965354,1.965354 0 0 0 -3.9307,0 1.965354,1.965354 0 0 0 3.9307,0 z"
       style="fill:none;stroke:#0000ff;stroke-linecap:round;stroke-opacity:1"
       id="path173" />
  </g>
  <g
     inkscape:groupmode="layer"
     inkscape:label="03___PRT_ALL_CURVES"
     id="g174"
     transform="translate(-66.173306,-32.564708)" />
  <g
     inkscape:groupmode="layer"
     inkscape:label="04___PRT_ALL_DTM_PNT"
     id="g175"
     transform="translate(-66.173306,-32.564708)" />
  <g
     inkscape:groupmode="layer"
     inkscape:label="05___PRT_ALL_DTM_CSYS"
     id="g176"
     transform="translate(-66.173306,-32.564708)" />
  <g
     inkscape:groupmode="layer"
     inkscape:label="05___PRT_DEF_DTM_CSYS"
     id="g177"
     transform="translate(-66.173306,-32.564708)" />
  <g
     inkscape:groupmode="layer"
     inkscape:label="06___PRT_ALL_SURFS"
     id="g178"
     transform="translate(-66.173306,-32.564708)" />
  <g
     inkscape:groupmode="layer"
     inkscape:label="3_ALL_SYMBOLS"
     id="g179"
     transform="translate(-66.173306,-32.564708)" />
</svg>
