<?xml version="1.0" encoding="UTF-8" standalone="no"?>
<svg
   viewBox="0 0 323.772 403.14204"
   width="323.772"
   height="403.14203"
   version="1.1"
   id="svg48"
   sodipodi:docname="b02_foam_duct_laser.svg"
   inkscape:version="1.4.2 (f4327f4, 2025-05-13)"
   xmlns:inkscape="http://www.inkscape.org/namespaces/inkscape"
   xmlns:sodipodi="http://sodipodi.sourceforge.net/DTD/sodipodi-0.dtd"
   xmlns="http://www.w3.org/2000/svg"
   xmlns:svg="http://www.w3.org/2000/svg">
  <sodipodi:namedview
     id="namedview48"
     pagecolor="#ffffff"
     bordercolor="#000000"
     borderopacity="0.25"
     inkscape:showpageshadow="2"
     inkscape:pageopacity="0.0"
     inkscape:pagecheckerboard="0"
     inkscape:deskcolor="#d1d1d1"
     inkscape:zoom="0.23401833"
     inkscape:cx="628.15594"
     inkscape:cy="373.90234"
     inkscape:window-width="1680"
     inkscape:window-height="987"
     inkscape:window-x="-8"
     inkscape:window-y="-8"
     inkscape:window-maximized="1"
     inkscape:current-layer="g48" />
  <desc
     id="desc1">b02_foam_duct_laser.dxf - scale = 1.000000, origin = (0.000000, 0.000000), method = manual</desc>
  <defs
     id="defs5">
    <marker
       id="DistanceX"
       orient="auto"
       refX="0"
       refY="0"
       style="overflow:visible">
      <path
         d="M 3,-3 -3,3 M 0,-5 V 5"
         style="stroke:#000000;stroke-width:0.5"
         id="path1" />
    </marker>
    <pattern
       id="Hatch"
       patternUnits="userSpaceOnUse"
       width="8"
       height="8"
       x="0"
       y="0">
      <path
         d="M8 4 l-4,4"
         stroke="#000000"
         stroke-width="0.25"
         linecap="square"
         id="path2" />
      <path
         d="M6 2 l-4,4"
         stroke="#000000"
         stroke-width="0.25"
         linecap="square"
         id="path3" />
      <path
         d="M4 0 l-4,4"
         stroke="#000000"
         stroke-width="0.25"
         linecap="square"
         id="path4" />
    </pattern>
    <symbol
       id="*Model_Space" />
    <symbol
       id="*Paper_Space" />
    <symbol
       id="_FILLED">
      <path
         style="fill:none;stroke:#000000;stroke-linecap:round"
         d="m 0,1122.52 -3.77953,-0.81 v 1.62 z"
         id="path5" />
    </symbol>
  </defs>
  <g
     inkscape:groupmode="layer"
     inkscape:label="0"
     id="g36"
     transform="translate(-176.17042,-355.04437)">
    <path
       style="fill:none;stroke:#0000ff;stroke-linecap:round;stroke-opacity:1"
       d="m 215.22142,757.6864 h 245.67"
       id="path10" />
    <path
       style="fill:none;stroke:#0000ff;stroke-linecap:round;stroke-opacity:1"
       d="m 176.67042,431.8904 v 287.245"
       id="path11" />
    <path
       style="fill:none;stroke:#0000ff;stroke-linecap:round;stroke-opacity:1"
       d="m 460.89142,725.9384 h -245.67"
       id="path12" />
    <path
       style="fill:none;stroke:#0000ff;stroke-linecap:round;stroke-opacity:1"
       d="M 208.41842,719.1354 V 595.0864"
       id="path13" />
    <path
       style="fill:none;stroke:#0000ff;stroke-linecap:round;stroke-opacity:1"
       d="m 208.41842,480.3484 v -48.458"
       id="path14" />
    <path
       style="fill:none;stroke:#0000ff;stroke-linecap:round;stroke-opacity:1"
       d="m 315.37942,674.1044 h 45.354"
       id="path15" />
    <path
       style="fill:none;stroke:#0000ff;stroke-linecap:round;stroke-opacity:1"
       d="m 315.37942,599.4974 v 74.607"
       id="path16" />
    <path
       style="fill:none;stroke:#0000ff;stroke-linecap:round;stroke-opacity:1"
       d="m 360.73342,674.1044 v -74.607"
       id="path17" />
    <path
       style="fill:none;stroke:#0000ff;stroke-linecap:round;stroke-opacity:1"
       d="m 467.69442,431.8904 v 48.458"
       id="path18" />
    <path
       style="fill:none;stroke:#0000ff;stroke-linecap:round;stroke-opacity:1"
       d="m 467.69442,595.0864 v 124.049"
       id="path19" />
    <path
       style="fill:none;stroke:#0000ff;stroke-linecap:round;stroke-opacity:1"
       d="M 499.44242,719.1354 V 431.8904"
       id="path20" />
    <path
       style="fill:none;stroke:#0000ff;stroke-linecap:round;stroke-opacity:1"
       d="m 253.01742,387.2924 h 170.078"
       id="path21" />
    <path
       style="fill:none;stroke:#0000ff;stroke-linecap:round;stroke-opacity:1"
       d="m 423.09542,355.5444 h -170.078"
       id="path22" />
    <path
       d="m 208.4187,595.0868 a 80.125984,80.125984 0 0 0 106.96063,4.41076"
       style="fill:none;stroke:#0000ff;stroke-linecap:round;stroke-opacity:1"
       id="path23" />
    <path
       d="M 360.73366,599.49756 A 80.125984,80.125984 0 0 0 467.69429,595.0868"
       style="fill:none;stroke:#0000ff;stroke-linecap:round;stroke-opacity:1"
       id="path24" />
    <path
       d="M 467.69429,480.3484 A 80.125984,80.125984 0 0 0 338.0565,506.27929"
       style="fill:none;stroke:#0000ff;stroke-linecap:round;stroke-opacity:1"
       id="path25" />
    <path
       d="M 338.0565,506.27929 A 80.125984,80.125984 0 0 0 208.4187,480.3484"
       style="fill:none;stroke:#0000ff;stroke-linecap:round;stroke-opacity:1"
       id="path26" />
    <path
       d="M 499.44233,431.89083 A 76.346457,76.346457 0 0 0 423.09587,355.54437"
       style="fill:none;stroke:#0000ff;stroke-linecap:round;stroke-opacity:1"
       id="path27" />
    <path
       d="m 253.01713,355.54437 a 76.346457,76.346457 0 0 0 -76.34646,76.34646"
       style="fill:none;stroke:#0000ff;stroke-linecap:round;stroke-opacity:1"
       id="path28" />
    <path
       d="m 479.03288,537.7176 a 67.275591,67.275591 0 0 0 -134.55118,0 67.275591,67.275591 0 0 0 134.55118,0 z"
       style="fill:none;stroke:#0000ff;stroke-linecap:round;stroke-opacity:1"
       id="path29" />
    <path
       d="m 331.6313,537.7176 a 67.275591,67.275591 0 0 0 -134.55118,0 67.275591,67.275591 0 0 0 134.55118,0 z"
       style="fill:none;stroke:#0000ff;stroke-linecap:round;stroke-opacity:1"
       id="path30" />
    <path
       d="M 467.69429,431.89083 A 44.598425,44.598425 0 0 0 423.09587,387.2924"
       style="fill:none;stroke:#0000ff;stroke-linecap:round;stroke-opacity:1"
       id="path31" />
    <path
       d="M 253.01713,387.2924 A 44.598425,44.598425 0 0 0 208.4187,431.89083"
       style="fill:none;stroke:#0000ff;stroke-linecap:round;stroke-opacity:1"
       id="path32" />
    <path
       d="m 176.67067,719.13492 a 38.551181,38.551181 0 0 0 38.55118,38.55118"
       style="fill:none;stroke:#0000ff;stroke-linecap:round;stroke-opacity:1"
       id="path33" />
    <path
       d="m 460.89115,757.6861 a 38.551181,38.551181 0 0 0 38.55118,-38.55118"
       style="fill:none;stroke:#0000ff;stroke-linecap:round;stroke-opacity:1"
       id="path34" />
    <path
       d="m 460.89115,725.93807 a 6.80315,6.80315 0 0 0 6.80314,-6.80315"
       style="fill:none;stroke:#0000ff;stroke-linecap:round;stroke-opacity:1"
       id="path35" />
    <path
       d="m 208.4187,719.13492 a 6.80315,6.80315 0 0 0 6.80315,6.80315"
       style="fill:none;stroke:#0000ff;stroke-linecap:round;stroke-opacity:1"
       id="path36" />
  </g>
  <g
     inkscape:groupmode="layer"
     inkscape:label="DEFAULT_1"
     id="g37"
     transform="translate(-176.17042,-355.04437)" />
  <g
     inkscape:groupmode="layer"
     inkscape:label="DEFAULT_2"
     id="g38"
     transform="translate(-176.17042,-355.04437)" />
  <g
     inkscape:groupmode="layer"
     inkscape:label="DEFAULT_3"
     id="g39"
     transform="translate(-176.17042,-355.04437)" />
  <g
     inkscape:groupmode="layer"
     inkscape:label="01___PRT_ALL_DTM_PLN"
     id="g40"
     transform="translate(-176.17042,-355.04437)" />
  <g
     inkscape:groupmode="layer"
     inkscape:label="01___PRT_DEF_DTM_PLN"
     id="g41"
     transform="translate(-176.17042,-355.04437)" />
  <g
     inkscape:groupmode="layer"
     inkscape:label="02___PRT_ALL_AXES"
     id="g42"
     transform="translate(-176.17042,-355.04437)" />
  <g
     inkscape:groupmode="layer"
     inkscape:label="03___PRT_ALL_CURVES"
     id="g43"
     transform="translate(-176.17042,-355.04437)" />
  <g
     inkscape:groupmode="layer"
     inkscape:label="04___PRT_ALL_DTM_PNT"
     id="g44"
     transform="translate(-176.17042,-355.04437)" />
  <g
     inkscape:groupmode="layer"
     inkscape:label="05___PRT_ALL_DTM_CSYS"
     id="g45"
     transform="translate(-176.17042,-355.04437)" />
  <g
     inkscape:groupmode="layer"
     inkscape:label="05___PRT_DEF_DTM_CSYS"
     id="g46"
     transform="translate(-176.17042,-355.04437)" />
  <g
     inkscape:groupmode="layer"
     inkscape:label="06___PRT_ALL_SURFS"
     id="g47"
     transform="translate(-176.17042,-355.04437)" />
  <g
     inkscape:groupmode="layer"
     inkscape:label="3_ALL_SYMBOLS"
     id="g48"
     transform="translate(-176.17042,-355.04437)" />
</svg>
