<?xml version="1.0" encoding="UTF-8" standalone="no"?>
<svg
   viewBox="0 0 323.77209 403.14216"
   width="323.77209"
   height="403.14215"
   version="1.1"
   id="svg55"
   sodipodi:docname="b03_foam_duct_laser.svg"
   inkscape:version="1.4.2 (f4327f4, 2025-05-13)"
   xmlns:inkscape="http://www.inkscape.org/namespaces/inkscape"
   xmlns:sodipodi="http://sodipodi.sourceforge.net/DTD/sodipodi-0.dtd"
   xmlns="http://www.w3.org/2000/svg"
   xmlns:svg="http://www.w3.org/2000/svg">
  <sodipodi:namedview
     id="namedview55"
     pagecolor="#ffffff"
     bordercolor="#000000"
     borderopacity="0.25"
     inkscape:showpageshadow="2"
     inkscape:pageopacity="0.0"
     inkscape:pagecheckerboard="0"
     inkscape:deskcolor="#d1d1d1"
     inkscape:zoom="0.33095189"
     inkscape:cx="456.25967"
     inkscape:cy="690.43268"
     inkscape:window-width="1680"
     inkscape:window-height="987"
     inkscape:window-x="-8"
     inkscape:window-y="-8"
     inkscape:window-maximized="1"
     inkscape:current-layer="g55" />
  <desc
     id="desc1">b03_foam_duct_laser.dxf - scale = 1.000000, origin = (0.000000, 0.000000), method = manual</desc>
  <defs
     id="defs5">
    <marker
       id="DistanceX"
       orient="auto"
       refX="0"
       refY="0"
       style="overflow:visible">
      <path
         d="M 3,-3 -3,3 M 0,-5 V 5"
         style="stroke:#000000;stroke-width:0.5"
         id="path1" />
    </marker>
    <pattern
       id="Hatch"
       patternUnits="userSpaceOnUse"
       width="8"
       height="8"
       x="0"
       y="0">
      <path
         d="M8 4 l-4,4"
         stroke="#000000"
         stroke-width="0.25"
         linecap="square"
         id="path2" />
      <path
         d="M6 2 l-4,4"
         stroke="#000000"
         stroke-width="0.25"
         linecap="square"
         id="path3" />
      <path
         d="M4 0 l-4,4"
         stroke="#000000"
         stroke-width="0.25"
         linecap="square"
         id="path4" />
    </pattern>
    <symbol
       id="*Model_Space" />
    <symbol
       id="*Paper_Space" />
    <symbol
       id="_FILLED">
      <path
         style="fill:none;stroke:#000000;stroke-linecap:round"
         d="m 0,1122.52 -3.77953,-0.81 v 1.62 z"
         id="path5" />
    </symbol>
  </defs>
  <g
     inkscape:groupmode="layer"
     inkscape:label="0"
     id="g43"
     transform="translate(-101.93702,151.31033)">
    <path
       style="fill:none;stroke:#0000ff;stroke-linecap:round;stroke-opacity:1"
       d="m 140.9881,251.33183 h 245.669"
       id="path10" />
    <path
       style="fill:none;stroke:#0000ff;stroke-linecap:round;stroke-opacity:1"
       d="M 102.4371,-74.464172 V 212.77983"
       id="path11" />
    <path
       style="fill:none;stroke:#0000ff;stroke-linecap:round;stroke-opacity:1"
       d="m 386.6571,219.58383 h -94.488"
       id="path12" />
    <path
       style="fill:none;stroke:#0000ff;stroke-linecap:round;stroke-opacity:1"
       d="m 235.4761,219.58383 h -94.488"
       id="path13" />
    <path
       style="fill:none;stroke:#0000ff;stroke-linecap:round;stroke-opacity:1"
       d="m 292.1691,191.99283 h -56.693"
       id="path14" />
    <path
       style="fill:none;stroke:#0000ff;stroke-linecap:round;stroke-opacity:1"
       d="M 134.1851,212.77983 V 88.731828"
       id="path15" />
    <path
       style="fill:none;stroke:#0000ff;stroke-linecap:round;stroke-opacity:1"
       d="m 134.1851,-48.759172 v -25.705"
       id="path16" />
    <path
       style="fill:none;stroke:#0000ff;stroke-linecap:round;stroke-opacity:1"
       d="m 282.7201,-103.94417 15.119,-15.118"
       id="path17" />
    <path
       style="fill:none;stroke:#0000ff;stroke-linecap:round;stroke-opacity:1"
       d="m 235.4761,191.99283 v 27.591"
       id="path18" />
    <path
       style="fill:none;stroke:#0000ff;stroke-linecap:round;stroke-opacity:1"
       d="m 292.1691,219.58383 v -27.591"
       id="path19" />
    <path
       style="fill:none;stroke:#0000ff;stroke-linecap:round;stroke-opacity:1"
       d="m 393.4611,-48.759172 -49.741,0.236"
       id="path20" />
    <path
       style="fill:none;stroke:#0000ff;stroke-linecap:round;stroke-opacity:1"
       d="m 183.9261,-48.523172 -49.741,-0.236"
       id="path21" />
    <path
       style="fill:none;stroke:#0000ff;stroke-linecap:round;stroke-opacity:1"
       d="m 229.8071,-119.06217 15.118,15.118"
       id="path22" />
    <path
       style="fill:none;stroke:#0000ff;stroke-linecap:round;stroke-opacity:1"
       d="m 393.4611,-74.464172 v 25.705"
       id="path23" />
    <path
       style="fill:none;stroke:#0000ff;stroke-linecap:round;stroke-opacity:1"
       d="M 393.4611,88.731828 V 212.77983"
       id="path24" />
    <path
       style="fill:none;stroke:#0000ff;stroke-linecap:round;stroke-opacity:1"
       d="m 244.9251,-103.94417 h 37.795"
       id="path25" />
    <path
       style="fill:none;stroke:#0000ff;stroke-linecap:round;stroke-opacity:1"
       d="M 425.2091,212.77983 V -74.464172"
       id="path26" />
    <path
       style="fill:none;stroke:#0000ff;stroke-linecap:round;stroke-opacity:1"
       d="m 178.7831,-119.06217 h 51.024"
       id="path27" />
    <path
       style="fill:none;stroke:#0000ff;stroke-linecap:round;stroke-opacity:1"
       d="m 297.8391,-119.06217 h 51.023"
       id="path28" />
    <path
       style="fill:none;stroke:#0000ff;stroke-linecap:round;stroke-opacity:1"
       d="M 348.8621,-150.81017 H 178.7831"
       id="path29" />
    <path
       d="M 134.18505,88.732097 A 80.125984,80.125984 0 0 0 263.82285,62.801211"
       style="fill:none;stroke:#0000ff;stroke-linecap:round;stroke-opacity:1"
       id="path30" />
    <path
       d="M 263.82285,62.801211 A 80.125984,80.125984 0 0 0 393.46064,88.732097"
       style="fill:none;stroke:#0000ff;stroke-linecap:round;stroke-opacity:1"
       id="path31" />
    <path
       d="M 343.72,-48.523132 A 80.125984,80.125984 0 0 0 263.82285,-0.07540684"
       style="fill:none;stroke:#0000ff;stroke-linecap:round;stroke-opacity:1"
       id="path32" />
    <path
       d="M 263.82285,-0.07540684 A 80.125984,80.125984 0 0 0 183.92569,-48.523132"
       style="fill:none;stroke:#0000ff;stroke-linecap:round;stroke-opacity:1"
       id="path33" />
    <path
       d="m 425.20868,-74.46387 a 76.346457,76.346457 0 0 0 -76.34646,-76.34646"
       style="fill:none;stroke:#0000ff;stroke-linecap:round;stroke-opacity:1"
       id="path34" />
    <path
       d="m 178.78348,-150.81033 a 76.346457,76.346457 0 0 0 -76.34646,76.34646"
       style="fill:none;stroke:#0000ff;stroke-linecap:round;stroke-opacity:1"
       id="path35" />
    <path
       d="m 404.79923,31.362902 a 67.275591,67.275591 0 0 0 -134.55118,0 67.275591,67.275591 0 0 0 134.55118,0 z"
       style="fill:none;stroke:#0000ff;stroke-linecap:round;stroke-opacity:1"
       id="path36" />
    <path
       d="m 257.39765,31.362902 a 67.275591,67.275591 0 0 0 -134.55118,0 67.275591,67.275591 0 0 0 134.55118,0 z"
       style="fill:none;stroke:#0000ff;stroke-linecap:round;stroke-opacity:1"
       id="path37" />
    <path
       d="m 393.46064,-74.46387 a 44.598425,44.598425 0 0 0 -44.59842,-44.59842"
       style="fill:none;stroke:#0000ff;stroke-linecap:round;stroke-opacity:1"
       id="path38" />
    <path
       d="m 178.78348,-119.06229 a 44.598425,44.598425 0 0 0 -44.59843,44.59842"
       style="fill:none;stroke:#0000ff;stroke-linecap:round;stroke-opacity:1"
       id="path39" />
    <path
       d="m 102.43702,212.78023 a 38.551181,38.551181 0 0 0 38.55118,38.55118"
       style="fill:none;stroke:#0000ff;stroke-linecap:round;stroke-opacity:1"
       id="path40" />
    <path
       d="m 386.6575,251.33141 a 38.551181,38.551181 0 0 0 38.55118,-38.55118"
       style="fill:none;stroke:#0000ff;stroke-linecap:round;stroke-opacity:1"
       id="path41" />
    <path
       d="m 134.18505,212.78023 a 6.80315,6.80315 0 0 0 6.80315,6.80315"
       style="fill:none;stroke:#0000ff;stroke-linecap:round;stroke-opacity:1"
       id="path42" />
    <path
       d="m 386.6575,219.58338 a 6.80315,6.80315 0 0 0 6.80314,-6.80315"
       style="fill:none;stroke:#0000ff;stroke-linecap:round;stroke-opacity:1"
       id="path43" />
  </g>
  <g
     inkscape:groupmode="layer"
     inkscape:label="DEFAULT_1"
     id="g44"
     transform="translate(-101.93702,151.31033)" />
  <g
     inkscape:groupmode="layer"
     inkscape:label="DEFAULT_2"
     id="g45"
     transform="translate(-101.93702,151.31033)" />
  <g
     inkscape:groupmode="layer"
     inkscape:label="DEFAULT_3"
     id="g46"
     transform="translate(-101.93702,151.31033)" />
  <g
     inkscape:groupmode="layer"
     inkscape:label="01___PRT_ALL_DTM_PLN"
     id="g47"
     transform="translate(-101.93702,151.31033)" />
  <g
     inkscape:groupmode="layer"
     inkscape:label="01___PRT_DEF_DTM_PLN"
     id="g48"
     transform="translate(-101.93702,151.31033)" />
  <g
     inkscape:groupmode="layer"
     inkscape:label="02___PRT_ALL_AXES"
     id="g49"
     transform="translate(-101.93702,151.31033)" />
  <g
     inkscape:groupmode="layer"
     inkscape:label="03___PRT_ALL_CURVES"
     id="g50"
     transform="translate(-101.93702,151.31033)" />
  <g
     inkscape:groupmode="layer"
     inkscape:label="04___PRT_ALL_DTM_PNT"
     id="g51"
     transform="translate(-101.93702,151.31033)" />
  <g
     inkscape:groupmode="layer"
     inkscape:label="05___PRT_ALL_DTM_CSYS"
     id="g52"
     transform="translate(-101.93702,151.31033)" />
  <g
     inkscape:groupmode="layer"
     inkscape:label="05___PRT_DEF_DTM_CSYS"
     id="g53"
     transform="translate(-101.93702,151.31033)" />
  <g
     inkscape:groupmode="layer"
     inkscape:label="06___PRT_ALL_SURFS"
     id="g54"
     transform="translate(-101.93702,151.31033)" />
  <g
     inkscape:groupmode="layer"
     inkscape:label="3_ALL_SYMBOLS"
     id="g55"
     transform="translate(-101.93702,151.31033)" />
</svg>
