999
"DXF R12 Output" (www.mydxf.blogspot.com)
 0 
SECTION
 2 
HEADER
 9 
$ACADVER
 1 
AC1009
 9 
$EXTMIN
 10 
 0 
 20 
 0 
 9 
$EXTMAX
 10 
 8.5 
 20 
 11 
 0 
ENDSEC
 0 
SECTION
 2 
ENTITIES
0
POLYLINE
8
0
62
170
70
0
10
0.000000
20
0.000000
66
1
0
VERTEX
8
0
10
10.332248
20
0.132156
70
0
0
VERTEX
8
0
10
75.332089
20
0.132156
70
0
0
SEQEND
8
0
0
POLYLINE
8
0
62
170
70
0
10
0.000000
20
0.000000
66
1
0
VERTEX
8
0
10
0.132309
20
86.332239
70
0
0
VERTEX
8
0
10
0.132309
20
10.332095
70
0
0
SEQEND
8
0
0
POLYLINE
8
0
62
170
70
0
10
0.000000
20
0.000000
66
1
0
VERTEX
8
0
10
75.332089
20
8.532137
70
0
0
VERTEX
8
0
10
10.332248
20
8.532137
70
0
0
SEQEND
8
0
0
POLYLINE
8
0
62
170
70
0
10
0.000000
20
0.000000
66
1
0
VERTEX
8
0
10
8.532290
20
10.332095
70
0
0
VERTEX
8
0
10
8.532290
20
86.332239
70
0
0
SEQEND
8
0
0
POLYLINE
8
0
62
170
70
0
10
0.000000
20
0.000000
66
1
0
VERTEX
8
0
10
77.132047
20
86.332239
70
0
0
VERTEX
8
0
10
77.132047
20
10.332095
70
0
0
SEQEND
8
0
0
POLYLINE
8
0
62
170
70
0
10
0.000000
20
0.000000
66
1
0
VERTEX
8
0
10
85.532029
20
10.332095
70
0
0
VERTEX
8
0
10
85.532029
20
86.332239
70
0
0
SEQEND
8
0
0
POLYLINE
8
0
62
170
70
0
10
0.000000
20
0.000000
66
1
0
VERTEX
8
0
10
20.332163
20
98.132112
70
0
0
VERTEX
8
0
10
65.332175
20
98.132112
70
0
0
SEQEND
8
0
0
POLYLINE
8
0
62
170
70
0
10
0.000000
20
0.000000
66
1
0
VERTEX
8
0
10
65.332175
20
106.532093
70
0
0
VERTEX
8
0
10
20.332163
20
106.532093
70
0
0
SEQEND
8
0
0
POLYLINE
8
0
62
170
70
0
10
0.000000
20
0.000000
66
1
0
VERTEX
8
0
10
85.532156
20
86.332107
70
0
0
VERTEX
8
0
10
85.427865
20
88.397437
70
0
0
VERTEX
8
0
10
85.121764
20
90.403106
70
0
0
VERTEX
8
0
10
84.624005
20
92.338961
70
0
0
VERTEX
8
0
10
83.944742
20
94.194848
70
0
0
VERTEX
8
0
10
83.094128
20
95.960614
70
0
0
VERTEX
8
0
10
82.082318
20
97.626105
70
0
0
VERTEX
8
0
10
80.919464
20
99.181166
70
0
0
VERTEX
8
0
10
79.615721
20
100.615646
70
0
0
VERTEX
8
0
10
78.181242
20
101.919389
70
0
0
VERTEX
8
0
10
76.626180
20
103.082243
70
0
0
VERTEX
8
0
10
74.960690
20
104.094054
70
0
0
VERTEX
8
0
10
73.194924
20
104.944668
70
0
0
VERTEX
8
0
10
71.339037
20
105.623931
70
0
0
VERTEX
8
0
10
69.403182
20
106.121690
70
0
0
VERTEX
8
0
10
67.397513
20
106.427792
70
0
0
VERTEX
8
0
10
65.332183
20
106.532082
70
0
0
SEQEND
8
0
0
POLYLINE
8
0
62
170
70
0
10
0.000000
20
0.000000
66
1
0
VERTEX
8
0
10
20.332240
20
106.532082
70
0
0
VERTEX
8
0
10
18.335720
20
106.433237
70
0
0
VERTEX
8
0
10
16.373017
20
106.140359
70
0
0
VERTEX
8
0
10
14.457377
20
105.658935
70
0
0
VERTEX
8
0
10
12.602043
20
104.994451
70
0
0
VERTEX
8
0
10
10.820264
20
104.152394
70
0
0
VERTEX
8
0
10
9.125283
20
103.138249
70
0
0
VERTEX
8
0
10
7.530346
20
101.957505
70
0
0
VERTEX
8
0
10
6.048700
20
100.615647
70
0
0
VERTEX
8
0
10
4.706842
20
99.134000
70
0
0
VERTEX
8
0
10
3.526097
20
97.539064
70
0
0
VERTEX
8
0
10
2.511953
20
95.844083
70
0
0
VERTEX
8
0
10
1.669896
20
94.062303
70
0
0
VERTEX
8
0
10
1.005412
20
92.206970
70
0
0
VERTEX
8
0
10
0.523987
20
90.291329
70
0
0
VERTEX
8
0
10
0.231109
20
88.328626
70
0
0
VERTEX
8
0
10
0.132264
20
86.332107
70
0
0
SEQEND
8
0
0
POLYLINE
8
0
62
170
70
0
10
0.000000
20
0.000000
66
1
0
VERTEX
8
0
10
77.132167
20
86.332107
70
0
0
VERTEX
8
0
10
76.903338
20
88.644920
70
0
0
VERTEX
8
0
10
76.233947
20
90.847766
70
0
0
VERTEX
8
0
10
75.149631
20
92.878745
70
0
0
VERTEX
8
0
10
73.676032
20
94.675957
70
0
0
VERTEX
8
0
10
71.878820
20
96.149557
70
0
0
VERTEX
8
0
10
69.847842
20
97.233872
70
0
0
VERTEX
8
0
10
67.644996
20
97.903265
70
0
0
VERTEX
8
0
10
65.332183
20
98.132093
70
0
0
SEQEND
8
0
0
POLYLINE
8
0
62
170
70
0
10
0.000000
20
0.000000
66
1
0
VERTEX
8
0
10
20.332240
20
98.132093
70
0
0
VERTEX
8
0
10
18.019426
20
97.903265
70
0
0
VERTEX
8
0
10
15.816580
20
97.233873
70
0
0
VERTEX
8
0
10
13.785601
20
96.149557
70
0
0
VERTEX
8
0
10
11.988389
20
94.675958
70
0
0
VERTEX
8
0
10
10.514789
20
92.878746
70
0
0
VERTEX
8
0
10
9.430473
20
90.847766
70
0
0
VERTEX
8
0
10
8.761081
20
88.644920
70
0
0
VERTEX
8
0
10
8.532253
20
86.332107
70
0
0
SEQEND
8
0
0
POLYLINE
8
0
62
170
70
0
10
0.000000
20
0.000000
66
1
0
VERTEX
8
0
10
0.132264
20
10.332204
70
0
0
VERTEX
8
0
10
0.339492
20
8.276551
70
0
0
VERTEX
8
0
10
0.933830
20
6.361909
70
0
0
VERTEX
8
0
10
1.874262
20
4.629294
70
0
0
VERTEX
8
0
10
3.119771
20
3.119724
70
0
0
VERTEX
8
0
10
4.629341
20
1.874215
70
0
0
VERTEX
8
0
10
6.361956
20
0.933782
70
0
0
VERTEX
8
0
10
8.276598
20
0.339444
70
0
0
VERTEX
8
0
10
10.332251
20
0.132217
70
0
0
SEQEND
8
0
0
POLYLINE
8
0
62
170
70
0
10
0.000000
20
0.000000
66
1
0
VERTEX
8
0
10
75.332169
20
0.132217
70
0
0
VERTEX
8
0
10
77.387822
20
0.339444
70
0
0
VERTEX
8
0
10
79.302464
20
0.933782
70
0
0
VERTEX
8
0
10
81.035078
20
1.874214
70
0
0
VERTEX
8
0
10
82.544649
20
3.119724
70
0
0
VERTEX
8
0
10
83.790158
20
4.629294
70
0
0
VERTEX
8
0
10
84.730590
20
6.361909
70
0
0
VERTEX
8
0
10
85.324928
20
8.276551
70
0
0
VERTEX
8
0
10
85.532156
20
10.332204
70
0
0
SEQEND
8
0
0
POLYLINE
8
0
62
170
70
0
10
0.000000
20
0.000000
66
1
0
VERTEX
8
0
10
75.332169
20
8.532206
70
0
0
VERTEX
8
0
10
76.020998
20
8.669222
70
0
0
VERTEX
8
0
10
76.604959
20
9.059413
70
0
0
VERTEX
8
0
10
76.995150
20
9.643374
70
0
0
VERTEX
8
0
10
77.132167
20
10.332204
70
0
0
SEQEND
8
0
0
POLYLINE
8
0
62
170
70
0
10
0.000000
20
0.000000
66
1
0
VERTEX
8
0
10
8.532253
20
10.332204
70
0
0
VERTEX
8
0
10
8.669270
20
9.643374
70
0
0
VERTEX
8
0
10
9.059460
20
9.059413
70
0
0
VERTEX
8
0
10
9.643422
20
8.669222
70
0
0
VERTEX
8
0
10
10.332251
20
8.532206
70
0
0
SEQEND
8
0
 0 
ENDSEC
 0 
EOF